<svg width="37" height="38" viewBox="0 0 37 38" fill="none" xmlns="http://www.w3.org/2000/svg">
<path d="M12.3334 15.0417C11.2691 15.0417 10.4063 15.9278 10.4063 17.0208C10.4063 18.1139 11.2691 19 12.3334 19C13.3977 19 14.2604 18.1139 14.2604 17.0208C14.2604 15.9278 13.3977 15.0417 12.3334 15.0417Z" fill="#626262"/>
<path d="M18.5 15.0417C17.4357 15.0417 16.5729 15.9278 16.5729 17.0208C16.5729 18.1139 17.4357 19 18.5 19C19.5643 19 20.4271 18.1139 20.4271 17.0208C20.4271 15.9278 19.5643 15.0417 18.5 15.0417Z" fill="#626262"/>
<path d="M22.7396 17.0208C22.7396 15.9278 23.6024 15.0417 24.6667 15.0417C25.731 15.0417 26.5938 15.9278 26.5938 17.0208C26.5938 18.1139 25.731 19 24.6667 19C23.6024 19 22.7396 18.1139 22.7396 17.0208Z" fill="#626262"/>
<path fill-rule="evenodd" clip-rule="evenodd" d="M24.822 7.27192C20.6684 6.90813 16.4932 6.88702 12.3363 7.20879L12.0384 7.23185C8.07435 7.53869 5.01044 10.9315 5.01044 15.0143V28.5C5.01044 28.9178 5.22421 29.3049 5.57337 29.5192C5.92253 29.7336 6.3557 29.7438 6.71404 29.546L12.7432 26.2183C13.0236 26.0635 13.337 25.9825 13.6554 25.9825H27.4941C29.2394 25.9825 30.7351 24.701 31.0479 22.9375C31.682 19.3636 31.7321 15.7061 31.1961 12.1153L31.0382 11.0571C30.7507 9.13057 29.2161 7.65678 27.3252 7.49117L24.822 7.27192ZM12.5101 9.57707C16.5437 9.26485 20.5951 9.28533 24.6255 9.63833L27.1287 9.85758C27.9556 9.93 28.6267 10.5745 28.7524 11.4169L28.9103 12.4751C29.4074 15.8053 29.3609 19.1973 28.7729 22.5118C28.6603 23.1464 28.1221 23.6075 27.4941 23.6075H13.6554C12.955 23.6075 12.2655 23.7857 11.6485 24.1263L7.32294 26.5137V15.0143C7.32294 12.1739 9.45447 9.8136 12.2122 9.60013L12.5101 9.57707Z" fill="#626262"/>
</svg>
