<svg width="37" height="38" viewBox="0 0 37 38" fill="none" xmlns="http://www.w3.org/2000/svg">
<path fill-rule="evenodd" clip-rule="evenodd" d="M12.7188 19C12.7188 15.7208 15.3071 13.0625 18.5 13.0625C21.6929 13.0625 24.2812 15.7208 24.2812 19C24.2812 22.2792 21.6929 24.9375 18.5 24.9375C15.3071 24.9375 12.7188 22.2792 12.7188 19ZM18.5 15.4375C16.5843 15.4375 15.0312 17.0325 15.0312 19C15.0312 20.9675 16.5843 22.5625 18.5 22.5625C20.4157 22.5625 21.9688 20.9675 21.9688 19C21.9688 17.0325 20.4157 15.4375 18.5 15.4375Z" fill="#626262"/>
<path fill-rule="evenodd" clip-rule="evenodd" d="M6.66528 16.8567C6.01914 17.813 5.78125 18.5609 5.78125 19C5.78125 19.4391 6.01914 20.187 6.66528 21.1433C7.28988 22.0676 8.21828 23.0696 9.39287 23.9955C11.7472 25.8512 14.9749 27.3125 18.5 27.3125C22.0251 27.3125 25.2528 25.8512 27.6071 23.9955C28.7817 23.0696 29.7101 22.0676 30.3347 21.1433C30.9809 20.187 31.2188 19.4391 31.2188 19C31.2188 18.5609 30.9809 17.813 30.3347 16.8567C29.7101 15.9324 28.7817 14.9304 27.6071 14.0045C25.2528 12.1488 22.0251 10.6875 18.5 10.6875C14.9749 10.6875 11.7472 12.1488 9.39287 14.0045C8.21828 14.9304 7.28988 15.9324 6.66528 16.8567ZM7.98492 12.1205C10.6524 10.0179 14.3621 8.3125 18.5 8.3125C22.6379 8.3125 26.3476 10.0179 29.0151 12.1205C30.3514 13.1738 31.4549 14.3489 32.2345 15.5026C32.9926 16.6245 33.5312 17.8557 33.5312 19C33.5312 20.1443 32.9926 21.3755 32.2345 22.4974C31.4549 23.6511 30.3514 24.8262 29.0151 25.8795C26.3476 27.9821 22.6379 29.6875 18.5 29.6875C14.3621 29.6875 10.6524 27.9821 7.98492 25.8795C6.64863 24.8262 5.54508 23.6511 4.76545 22.4974C4.00736 21.3755 3.46875 20.1443 3.46875 19C3.46875 17.8557 4.00736 16.6245 4.76545 15.5026C5.54508 14.3489 6.64863 13.1738 7.98492 12.1205Z" fill="#626262"/>
</svg>
