<svg width="37" height="38" viewBox="0 0 37 38" fill="none" xmlns="http://www.w3.org/2000/svg">
<path fill-rule="evenodd" clip-rule="evenodd" d="M3.79272 26.6302C3.45112 26.2664 3.37117 25.7204 3.59348 25.2695L4.67496 23.076C7.23454 17.8845 12.4191 14.6123 18.085 14.6123H18.6168C18.6555 13.7472 18.7056 12.8825 18.7669 12.0185L18.8715 10.545C18.9566 9.34665 20.2575 8.6768 21.2433 9.32372C24.4772 11.446 27.2886 14.1805 29.5276 17.3816L30.2308 18.3869C30.5203 18.801 30.5203 19.3586 30.2308 19.7726L29.5276 20.7779C27.2886 23.979 24.4772 26.7136 21.2433 28.8358C20.2575 29.4827 18.9566 28.8129 18.8715 27.6146L18.7669 26.1411C18.6937 25.1092 18.6365 24.0764 18.5954 23.0431C15.2811 22.9448 11.9708 23.6318 8.92856 25.0739L5.10956 26.8841C4.66273 27.0959 4.13433 26.9941 3.79272 26.6302ZM7.21252 23.2716L7.95949 22.9175C11.6767 21.1555 15.7552 20.4117 19.8023 20.7309C20.3916 20.7774 20.852 21.273 20.8695 21.8798C20.9087 23.2436 20.9767 24.6068 21.0733 25.9684L21.0817 26.0863C23.6153 24.247 25.8357 21.9854 27.6495 19.3923L27.868 19.0798L27.6495 18.7673C25.8357 16.1742 23.6153 13.9125 21.0817 12.0732L21.0733 12.1911C20.987 13.4065 20.9236 14.6232 20.8831 15.8404C20.8618 16.4801 20.3507 16.9873 19.7275 16.9873L18.085 16.9873C13.6183 16.9873 9.50523 19.3907 7.21252 23.2716Z" fill="#626262"/>
</svg>
