<svg width="25" height="5" viewBox="0 0 25 5" fill="none" xmlns="http://www.w3.org/2000/svg">
<path d="M3.25 0.0625C1.97284 0.0625 0.9375 1.15381 0.9375 2.5C0.9375 3.84619 1.97284 4.9375 3.25 4.9375C4.52716 4.9375 5.5625 3.84619 5.5625 2.5C5.5625 1.15381 4.52716 0.0625 3.25 0.0625Z" fill="#777777"/>
<path d="M10.1875 2.5C10.1875 1.15381 11.2228 0.0625 12.5 0.0625C13.7772 0.0625 14.8125 1.15381 14.8125 2.5C14.8125 3.84619 13.7772 4.9375 12.5 4.9375C11.2228 4.9375 10.1875 3.84619 10.1875 2.5Z" fill="#777777"/>
<path d="M19.4375 2.5C19.4375 1.15381 20.4728 0.0625 21.75 0.0625C23.0272 0.0625 24.0625 1.15381 24.0625 2.5C24.0625 3.84619 23.0272 4.9375 21.75 4.9375C20.4728 4.9375 19.4375 3.84619 19.4375 2.5Z" fill="#777777"/>
</svg>
